<svg xmlns="http://www.w3.org/2000/svg" viewBox="0 0 800 480">
  <!-- Title -->
  <text x="400" y="30" font-size="24" font-weight="bold" text-anchor="middle" fill="#333">Git Reset --hard</text>
  <text x="400" y="55" font-size="13" text-anchor="middle" fill="#d32f2f">⚠️ DESTRUCTIVE: Permanently deletes all changes!</text>
  
  <!-- Before Reset -->
  <g id="before">
    <text x="150" y="100" font-size="16" font-weight="bold" fill="#666">Before Reset:</text>
    
    <!-- Working Directory -->
    <rect x="50" y="120" width="120" height="100" fill="#e3f2fd" stroke="#2196f3" stroke-width="2" rx="5"/>
    <text x="110" y="145" font-size="13" font-weight="bold" text-anchor="middle" fill="#2196f3">Working</text>
    <text x="110" y="165" font-size="13" font-weight="bold" text-anchor="middle" fill="#2196f3">Directory</text>
    <text x="110" y="195" font-size="10" text-anchor="middle" fill="#555">Clean</text>
    
    <!-- Staging Area -->
    <rect x="200" y="120" width="120" height="100" fill="#fff3e0" stroke="#ff9800" stroke-width="2" rx="5"/>
    <text x="260" y="145" font-size="13" font-weight="bold" text-anchor="middle" fill="#ff9800">Staging</text>
    <text x="260" y="165" font-size="13" font-weight="bold" text-anchor="middle" fill="#ff9800">Area</text>
    <text x="260" y="195" font-size="10" text-anchor="middle" fill="#555">Empty</text>
    
    <!-- Repository -->
    <rect x="350" y="120" width="120" height="100" fill="#f1f8e9" stroke="#689f38" stroke-width="2" rx="5"/>
    <text x="410" y="145" font-size="13" font-weight="bold" text-anchor="middle" fill="#689f38">Repository</text>
    <circle cx="380" cy="175" r="8" fill="#689f38"/>
    <circle cx="410" cy="175" r="8" fill="#689f38"/>
    <circle cx="440" cy="175" r="8" fill="#689f38"/>
    <text x="380" y="160" font-size="9" text-anchor="middle">A</text>
    <text x="410" y="160" font-size="9" text-anchor="middle">B</text>
    <text x="440" y="160" font-size="9" text-anchor="middle">C</text>
    <text x="410" y="205" font-size="10" text-anchor="middle" fill="#d32f2f">← HEAD</text>
  </g>
  
  <!-- Command -->
  <g id="command">
    <rect x="120" y="240" width="280" height="35" fill="#ffebee" stroke="#d32f2f" stroke-width="3" rx="5"/>
    <text x="260" y="263" font-size="14" font-weight="bold" text-anchor="middle" fill="#b71c1c">⚠️ git reset --hard HEAD~1</text>
  </g>
  
  <!-- Arrow -->
  <path d="M 260 275 L 260 295" stroke="#d32f2f" stroke-width="4" marker-end="url(#arrow-red-thick)"/>
  
  <!-- After Reset -->
  <g id="after">
    <text x="150" y="330" font-size="16" font-weight="bold" fill="#666">After Reset:</text>
    
    <!-- Working Directory -->
    <rect x="50" y="350" width="120" height="100" fill="#e3f2fd" stroke="#2196f3" stroke-width="2" rx="5"/>
    <text x="110" y="375" font-size="13" font-weight="bold" text-anchor="middle" fill="#2196f3">Working</text>
    <text x="110" y="395" font-size="13" font-weight="bold" text-anchor="middle" fill="#2196f3">Directory</text>
    <text x="110" y="425" font-size="11" font-weight="bold" text-anchor="middle" fill="#4caf50">Clean ✓</text>
    
    <!-- Staging Area -->
    <rect x="200" y="350" width="120" height="100" fill="#fff3e0" stroke="#ff9800" stroke-width="2" rx="5"/>
    <text x="260" y="375" font-size="13" font-weight="bold" text-anchor="middle" fill="#ff9800">Staging</text>
    <text x="260" y="395" font-size="13" font-weight="bold" text-anchor="middle" fill="#ff9800">Area</text>
    <text x="260" y="425" font-size="11" font-weight="bold" text-anchor="middle" fill="#4caf50">Empty ✓</text>
    
    <!-- Repository -->
    <rect x="350" y="350" width="120" height="100" fill="#f1f8e9" stroke="#689f38" stroke-width="2" rx="5"/>
    <text x="410" y="375" font-size="13" font-weight="bold" text-anchor="middle" fill="#689f38">Repository</text>
    <circle cx="380" cy="405" r="8" fill="#689f38"/>
    <circle cx="410" cy="405" r="8" fill="#689f38"/>
    <circle cx="440" cy="405" r="8" fill="#bdbdbd" stroke="#999" stroke-width="1" stroke-dasharray="2,2"/>
    <line x1="430" y1="395" x2="450" y2="415" stroke="#d32f2f" stroke-width="3"/>
    <line x1="450" y1="395" x2="430" y2="415" stroke="#d32f2f" stroke-width="3"/>
    <text x="380" y="390" font-size="9" text-anchor="middle">A</text>
    <text x="410" y="390" font-size="9" text-anchor="middle">B</text>
    <text x="440" y="390" font-size="9" text-anchor="middle" fill="#999">C</text>
    <text x="410" y="435" font-size="10" text-anchor="middle" fill="#d32f2f">← HEAD</text>
  </g>
  
  <!-- Warning box -->
  <rect x="500" y="180" width="270" height="180" fill="#ffebee" stroke="#d32f2f" stroke-width="3" rx="5"/>
  <text x="635" y="205" font-size="16" font-weight="bold" text-anchor="middle" fill="#b71c1c">⚠️ DANGER ZONE ⚠️</text>
  
  <text x="515" y="235" font-size="11" fill="#c62828">✗ Commit removed</text>
  <text x="515" y="255" font-size="11" fill="#c62828">✗ Staging cleared</text>
  <text x="515" y="275" font-size="11" fill="#c62828">✗ Working dir cleaned</text>
  <text x="515" y="295" font-size="11" font-weight="bold" fill="#b71c1c">✗ ALL CHANGES LOST!</text>
  
  <rect x="515" y="310" width="230" height="40" fill="#fce4ec" stroke="#d32f2f" stroke-width="1" rx="3"/>
  <text x="630" y="327" font-size="10" font-weight="bold" text-anchor="middle" fill="#b71c1c">CANNOT BE RECOVERED</text>
  <text x="630" y="342" font-size="9" text-anchor="middle" fill="#c62828">Use with extreme caution!</text>
  
  <!-- Use case -->
  <text x="635" y="365" font-size="10" font-style="italic" text-anchor="middle" fill="#e53935">Use when: Want to completely</text>
  <text x="635" y="380" font-size="10" font-style="italic" text-anchor="middle" fill="#e53935">discard all changes</text>
  
  <defs>
    <marker id="arrow-red-thick" markerWidth="12" markerHeight="12" refX="10" refY="3.5" orient="auto">
      <polygon points="0 0, 12 3.5, 0 7" fill="#d32f2f"/>
    </marker>
  </defs>
</svg>